<mxfile host="app.diagrams.net" modified="2024-05-04T15:38:47.941Z" agent="Mozilla/5.0 (Windows NT 10.0; Win64; x64) AppleWebKit/537.36 (KHTML, like Gecko) Chrome/124.0.0.0 Safari/537.36" etag="1mMJqZjndODbymxXbULS" version="24.3.1" type="device">
  <diagram name="Página-1" id="pb9grvpv6j3vmiJ66n1o">
    <mxGraphModel dx="1688" dy="915" grid="1" gridSize="10" guides="1" tooltips="1" connect="1" arrows="1" fold="1" page="1" pageScale="1" pageWidth="1169" pageHeight="827" math="0" shadow="0">
      <root>
        <mxCell id="0" />
        <mxCell id="1" parent="0" />
        <mxCell id="otyhLCUbhe_SrRANuJHj-40" value="" style="rounded=0;whiteSpace=wrap;html=1;" vertex="1" parent="1">
          <mxGeometry x="130" y="110" width="490" height="660" as="geometry" />
        </mxCell>
        <mxCell id="otyhLCUbhe_SrRANuJHj-2" value="&lt;font style=&quot;font-size: 22px;&quot;&gt;Target&lt;/font&gt;" style="text;html=1;align=center;verticalAlign=middle;resizable=0;points=[];autosize=1;strokeColor=none;fillColor=none;" vertex="1" parent="1">
          <mxGeometry x="230" y="180" width="80" height="40" as="geometry" />
        </mxCell>
        <mxCell id="otyhLCUbhe_SrRANuJHj-3" value="" style="edgeStyle=orthogonalEdgeStyle;rounded=0;orthogonalLoop=1;jettySize=auto;html=1;exitX=0.51;exitY=1.056;exitDx=0;exitDy=0;exitPerimeter=0;" edge="1" parent="1" source="otyhLCUbhe_SrRANuJHj-4" target="otyhLCUbhe_SrRANuJHj-9">
          <mxGeometry relative="1" as="geometry">
            <mxPoint x="435" y="270" as="sourcePoint" />
          </mxGeometry>
        </mxCell>
        <mxCell id="otyhLCUbhe_SrRANuJHj-4" value="&lt;font style=&quot;font-size: 22px;&quot;&gt;Input&lt;/font&gt;" style="text;html=1;align=center;verticalAlign=middle;resizable=0;points=[];autosize=1;strokeColor=none;fillColor=none;" vertex="1" parent="1">
          <mxGeometry x="400" y="180" width="70" height="40" as="geometry" />
        </mxCell>
        <mxCell id="otyhLCUbhe_SrRANuJHj-5" value="" style="endArrow=classic;html=1;rounded=0;exitX=0.52;exitY=1.007;exitDx=0;exitDy=0;exitPerimeter=0;entryX=0.5;entryY=0;entryDx=0;entryDy=0;" edge="1" parent="1" source="otyhLCUbhe_SrRANuJHj-2">
          <mxGeometry width="50" height="50" relative="1" as="geometry">
            <mxPoint x="300" y="370" as="sourcePoint" />
            <mxPoint x="270" y="440" as="targetPoint" />
          </mxGeometry>
        </mxCell>
        <mxCell id="otyhLCUbhe_SrRANuJHj-6" value="" style="edgeStyle=orthogonalEdgeStyle;rounded=0;orthogonalLoop=1;jettySize=auto;html=1;" edge="1" parent="1">
          <mxGeometry relative="1" as="geometry">
            <mxPoint x="270" y="500" as="sourcePoint" />
            <mxPoint x="270" y="540" as="targetPoint" />
          </mxGeometry>
        </mxCell>
        <mxCell id="otyhLCUbhe_SrRANuJHj-8" value="" style="edgeStyle=orthogonalEdgeStyle;rounded=0;orthogonalLoop=1;jettySize=auto;html=1;" edge="1" parent="1" source="otyhLCUbhe_SrRANuJHj-9" target="otyhLCUbhe_SrRANuJHj-10">
          <mxGeometry relative="1" as="geometry" />
        </mxCell>
        <mxCell id="otyhLCUbhe_SrRANuJHj-9" value="Generador" style="whiteSpace=wrap;html=1;fillColor=#e1d5e7;strokeColor=#9673a6;" vertex="1" parent="1">
          <mxGeometry x="375" y="340" width="120" height="60" as="geometry" />
        </mxCell>
        <mxCell id="otyhLCUbhe_SrRANuJHj-10" value="Discriminador" style="whiteSpace=wrap;html=1;fillColor=#d5e8d4;strokeColor=#82b366;" vertex="1" parent="1">
          <mxGeometry x="375" y="440" width="120" height="60" as="geometry" />
        </mxCell>
        <mxCell id="otyhLCUbhe_SrRANuJHj-13" value="&lt;font style=&quot;font-size: 32px;&quot;&gt;+&lt;/font&gt;" style="ellipse;whiteSpace=wrap;html=1;aspect=fixed;" vertex="1" parent="1">
          <mxGeometry x="330" y="640" width="60" height="60" as="geometry" />
        </mxCell>
        <mxCell id="otyhLCUbhe_SrRANuJHj-14" value="" style="endArrow=classic;html=1;rounded=0;exitX=0.5;exitY=1;exitDx=0;exitDy=0;entryX=0;entryY=0.5;entryDx=0;entryDy=0;" edge="1" parent="1" target="otyhLCUbhe_SrRANuJHj-13">
          <mxGeometry width="50" height="50" relative="1" as="geometry">
            <mxPoint x="270" y="600" as="sourcePoint" />
            <mxPoint x="270" y="670" as="targetPoint" />
            <Array as="points">
              <mxPoint x="270" y="670" />
            </Array>
          </mxGeometry>
        </mxCell>
        <mxCell id="otyhLCUbhe_SrRANuJHj-15" value="Entropía Cruzada Sigmoidea" style="whiteSpace=wrap;html=1;rounded=0;fillColor=#b1ddf0;strokeColor=#10739e;" vertex="1" parent="1">
          <mxGeometry x="375" y="540" width="120" height="60" as="geometry" />
        </mxCell>
        <mxCell id="otyhLCUbhe_SrRANuJHj-16" value="&lt;font style=&quot;font-size: 24px;&quot;&gt;Discriminador&lt;/font&gt;" style="text;html=1;align=center;verticalAlign=middle;resizable=0;points=[];autosize=1;strokeColor=none;fillColor=none;" vertex="1" parent="1">
          <mxGeometry x="275" y="130" width="170" height="40" as="geometry" />
        </mxCell>
        <mxCell id="otyhLCUbhe_SrRANuJHj-17" value="" style="endArrow=classic;html=1;rounded=0;exitX=0.5;exitY=1;exitDx=0;exitDy=0;fillColor=#f8cecc;strokeColor=#b85450;" edge="1" parent="1" source="otyhLCUbhe_SrRANuJHj-13">
          <mxGeometry width="50" height="50" relative="1" as="geometry">
            <mxPoint x="380" y="760" as="sourcePoint" />
            <mxPoint x="510" y="470" as="targetPoint" />
            <Array as="points">
              <mxPoint x="360" y="720" />
              <mxPoint x="580" y="720" />
              <mxPoint x="580" y="470" />
            </Array>
          </mxGeometry>
        </mxCell>
        <mxCell id="otyhLCUbhe_SrRANuJHj-18" value="" style="endArrow=classic;html=1;rounded=0;exitX=0.5;exitY=1;exitDx=0;exitDy=0;entryX=0.5;entryY=0;entryDx=0;entryDy=0;" edge="1" parent="1" source="otyhLCUbhe_SrRANuJHj-10" target="otyhLCUbhe_SrRANuJHj-15">
          <mxGeometry width="50" height="50" relative="1" as="geometry">
            <mxPoint x="490" y="560" as="sourcePoint" />
            <mxPoint x="540" y="510" as="targetPoint" />
          </mxGeometry>
        </mxCell>
        <mxCell id="otyhLCUbhe_SrRANuJHj-19" value="" style="endArrow=classic;html=1;rounded=0;exitX=0.5;exitY=1;exitDx=0;exitDy=0;entryX=1;entryY=0.5;entryDx=0;entryDy=0;" edge="1" parent="1" source="otyhLCUbhe_SrRANuJHj-15" target="otyhLCUbhe_SrRANuJHj-13">
          <mxGeometry width="50" height="50" relative="1" as="geometry">
            <mxPoint x="450" y="680" as="sourcePoint" />
            <mxPoint x="430" y="670" as="targetPoint" />
            <Array as="points">
              <mxPoint x="435" y="670" />
            </Array>
          </mxGeometry>
        </mxCell>
        <mxCell id="otyhLCUbhe_SrRANuJHj-20" value="" style="endArrow=classic;html=1;rounded=0;entryX=0.5;entryY=0;entryDx=0;entryDy=0;" edge="1" parent="1" target="otyhLCUbhe_SrRANuJHj-27">
          <mxGeometry width="50" height="50" relative="1" as="geometry">
            <mxPoint x="435" y="240" as="sourcePoint" />
            <mxPoint x="375" y="473" as="targetPoint" />
            <Array as="points">
              <mxPoint x="350" y="240" />
              <mxPoint x="350" y="260" />
            </Array>
          </mxGeometry>
        </mxCell>
        <mxCell id="otyhLCUbhe_SrRANuJHj-21" value="" style="edgeStyle=orthogonalEdgeStyle;rounded=0;orthogonalLoop=1;jettySize=auto;html=1;" edge="1" parent="1" source="otyhLCUbhe_SrRANuJHj-22" target="otyhLCUbhe_SrRANuJHj-15">
          <mxGeometry relative="1" as="geometry" />
        </mxCell>
        <mxCell id="otyhLCUbhe_SrRANuJHj-22" value="0s" style="text;html=1;align=center;verticalAlign=middle;resizable=0;points=[];autosize=1;strokeColor=none;fillColor=none;" vertex="1" parent="1">
          <mxGeometry x="530" y="555" width="40" height="30" as="geometry" />
        </mxCell>
        <mxCell id="otyhLCUbhe_SrRANuJHj-24" value="Discriminador" style="whiteSpace=wrap;html=1;fillColor=#d5e8d4;strokeColor=#82b366;" vertex="1" parent="1">
          <mxGeometry x="210" y="440" width="120" height="60" as="geometry" />
        </mxCell>
        <mxCell id="otyhLCUbhe_SrRANuJHj-27" value="Bilinear Upscaling" style="whiteSpace=wrap;html=1;rounded=0;fillColor=#fad9d5;strokeColor=#ae4132;" vertex="1" parent="1">
          <mxGeometry x="290" y="270" width="120" height="60" as="geometry" />
        </mxCell>
        <mxCell id="otyhLCUbhe_SrRANuJHj-30" value="" style="endArrow=classic;html=1;rounded=0;entryX=0;entryY=0.5;entryDx=0;entryDy=0;exitX=0.5;exitY=1;exitDx=0;exitDy=0;" edge="1" parent="1" source="otyhLCUbhe_SrRANuJHj-27">
          <mxGeometry width="50" height="50" relative="1" as="geometry">
            <mxPoint x="435" y="240" as="sourcePoint" />
            <mxPoint x="375" y="470" as="targetPoint" />
            <Array as="points">
              <mxPoint x="350" y="330" />
              <mxPoint x="350" y="470" />
            </Array>
          </mxGeometry>
        </mxCell>
        <mxCell id="otyhLCUbhe_SrRANuJHj-31" value="" style="endArrow=classic;html=1;rounded=0;entryX=1;entryY=0.5;entryDx=0;entryDy=0;exitX=0.5;exitY=1;exitDx=0;exitDy=0;" edge="1" parent="1" target="otyhLCUbhe_SrRANuJHj-24">
          <mxGeometry width="50" height="50" relative="1" as="geometry">
            <mxPoint x="350" y="330" as="sourcePoint" />
            <mxPoint x="375" y="470" as="targetPoint" />
            <Array as="points">
              <mxPoint x="350" y="330" />
              <mxPoint x="350" y="470" />
            </Array>
          </mxGeometry>
        </mxCell>
        <mxCell id="otyhLCUbhe_SrRANuJHj-33" value="Entropía Cruzada Sigmoidea" style="whiteSpace=wrap;html=1;rounded=0;fillColor=#b1ddf0;strokeColor=#10739e;" vertex="1" parent="1">
          <mxGeometry x="210" y="540" width="120" height="60" as="geometry" />
        </mxCell>
        <mxCell id="otyhLCUbhe_SrRANuJHj-35" value="" style="edgeStyle=orthogonalEdgeStyle;rounded=0;orthogonalLoop=1;jettySize=auto;html=1;" edge="1" parent="1" source="otyhLCUbhe_SrRANuJHj-34" target="otyhLCUbhe_SrRANuJHj-33">
          <mxGeometry relative="1" as="geometry" />
        </mxCell>
        <mxCell id="otyhLCUbhe_SrRANuJHj-34" value="1s" style="text;html=1;align=center;verticalAlign=middle;resizable=0;points=[];autosize=1;strokeColor=none;fillColor=none;" vertex="1" parent="1">
          <mxGeometry x="140" y="555" width="40" height="30" as="geometry" />
        </mxCell>
        <mxCell id="otyhLCUbhe_SrRANuJHj-36" value="" style="endArrow=none;dashed=1;html=1;rounded=0;" edge="1" parent="1">
          <mxGeometry width="50" height="50" relative="1" as="geometry">
            <mxPoint x="200" y="420" as="sourcePoint" />
            <mxPoint x="510" y="420" as="targetPoint" />
          </mxGeometry>
        </mxCell>
        <mxCell id="otyhLCUbhe_SrRANuJHj-37" value="" style="endArrow=none;dashed=1;html=1;rounded=0;" edge="1" parent="1">
          <mxGeometry width="50" height="50" relative="1" as="geometry">
            <mxPoint x="200" y="520" as="sourcePoint" />
            <mxPoint x="510" y="520" as="targetPoint" />
          </mxGeometry>
        </mxCell>
        <mxCell id="otyhLCUbhe_SrRANuJHj-38" value="" style="endArrow=none;dashed=1;html=1;rounded=0;" edge="1" parent="1">
          <mxGeometry width="50" height="50" relative="1" as="geometry">
            <mxPoint x="200" y="520" as="sourcePoint" />
            <mxPoint x="200" y="420" as="targetPoint" />
          </mxGeometry>
        </mxCell>
        <mxCell id="otyhLCUbhe_SrRANuJHj-39" value="" style="endArrow=none;dashed=1;html=1;rounded=0;" edge="1" parent="1">
          <mxGeometry width="50" height="50" relative="1" as="geometry">
            <mxPoint x="510" y="520" as="sourcePoint" />
            <mxPoint x="510" y="420" as="targetPoint" />
          </mxGeometry>
        </mxCell>
      </root>
    </mxGraphModel>
  </diagram>
</mxfile>
